HIERARCHY
ROOT pelvis
{
  OFFSET 0 100 0
  CHANNELS 6 Xposition Yposition Zposition Zrotation Xrotation Yrotation
  JOINT pelvis_right_femur
  {
    OFFSET -10.78128 -3.44521 -0.5502486
    CHANNELS 3 Zrotation Xrotation Yrotation
    JOINT right_femur_tibia
    {
      OFFSET -0.8047443 -44.0398 -0.1307829
      CHANNELS 3 Zrotation Xrotation Yrotation
      JOINT right_tibia_foot
      {
        OFFSET 3.006224 -47.83518 -5
        CHANNELS 3 Zrotation Xrotation Yrotation
        End Site
        {
          OFFSET 0 -5 15
        }
      }
    }
  }
  JOINT pelvis_left_femur
  {
    OFFSET 10.78128 -3.44521 -0.5502486
    CHANNELS 3 Zrotation Xrotation Yrotation
    JOINT left_femur_tibia
    {
      OFFSET 0.8047443 -44.0398 -0.1307829
      CHANNELS 3 Zrotation Xrotation Yrotation
      JOINT left_tibia_foot
      {
        OFFSET -4.370144 -48.10324 -4.275266
        CHANNELS 3 Zrotation Xrotation Yrotation
        End Site
        {
          OFFSET 0 -5 15
        }
      }
    }
  }
  JOINT pelvis_spine1
  {
    OFFSET 0 6.468898 -3.129235
    CHANNELS 3 Zrotation Xrotation Yrotation
    JOINT spine1
    {
      OFFSET 0 23.15396 4.99043
      CHANNELS 3 Zrotation Xrotation Yrotation
      JOINT spine2
      {
        OFFSET 0 20.79997 -5.064912
        CHANNELS 3 Zrotation Xrotation Yrotation
        JOINT neck
        {
          OFFSET 0 14.38658 9.616178
          CHANNELS 3 Zrotation Xrotation Yrotation
          End Site
          {
            OFFSET 0 20 0
          }
        }
      }
      JOINT right_manubrium
      {
        OFFSET -5.722621 16.35077 3.967754
        CHANNELS 3 Zrotation Xrotation Yrotation
        JOINT right_clavicle
        {
          OFFSET -13.16364 1.694482 -4.693211
          CHANNELS 3 Zrotation Xrotation Yrotation
          JOINT right_humerus
          {
            OFFSET -28.5034 -0.3100689 -2.792744
            CHANNELS 3 Zrotation Xrotation Yrotation
            JOINT right_radius
            {
              OFFSET -25.15693 0.02248979 -1.271978
              CHANNELS 3 Zrotation Xrotation Yrotation
              End Site
              {
                OFFSET -15 0 0
              }
            }
          }
        }
      }
      JOINT left_manubrium
      {
        OFFSET 5.722621 16.35077 3.967754
        CHANNELS 3 Zrotation Xrotation Yrotation
        JOINT left_clavicle
        {
          OFFSET 13.16364 1.694482 -4.693211
          CHANNELS 3 Zrotation Xrotation Yrotation
          JOINT left_humerus
          {
            OFFSET 29.39168 -1.063119 -2.237045
            CHANNELS 3 Zrotation Xrotation Yrotation
            JOINT left_radius
            {
              OFFSET 24.59957 -0.9528479 0.9047498
              CHANNELS 3 Zrotation Xrotation Yrotation
              End Site
              {
                OFFSET 15 -0 -0
              }
            }
          }
        }
      }
    }
  }
}
MOTION
Frames: 20
Frame Time: 0.0416666666667
0 103.5113 0 2.441047 -1.174124 -0.005256366 1.04135 -9.92415 8.720406 1.718593e-09 34.98273 4.078239e-10 -5.382336 -18.6658 -3.240561 -8.344103 9.921212 -24.44708 -7.18934e-09 5.387214 4.822635e-09 8.655164 -16.46052 27.49945 -5.124625 -5.517222 5.476308 2.251993 9.107087 -7.616372 1.275848 22.78378 6.529925 3.176288 -23.3278 8.730218 6.263528 -20.11797 11.32796 85.84243 35.6873 -19.7713 8.661721e-10 -1.160769e-09 16.54533 -6.778137 7.896287 4.027722 5.538548 -19.60749 -1.390284 -94.747 29.91509 23.34205 -3.522142e-11 -2.859996e-10 -15.92284 3.910577 18.64319 9.029795
0.296103 103.7059 1.361658 1.866488 -1.171167 0.02176927 1.862129 -12.71675 8.799417 1.587905e-09 37.77089 -4.813508e-12 -5.384641 -17.74656 -3.482274 -7.828837 10.85631 -24.03174 -5.913123e-09 5.280468 3.707183e-09 8.166458 -16.97314 26.77505 -4.646404 -4.925926 5.046981 2.317781 9.169655 -7.774356 1.22197 22.62383 6.713205 3.16299 -23.56644 8.89862 6.386895 -20.03033 11.43834 86.18036 35.57011 -19.91145 7.000268e-10 -7.062358e-10 16.46989 -6.860107 8.123774 4.061534 5.314468 -19.55866 -1.696009 -94.69432 29.99349 23.19879 2.079833e-11 -2.633677e-10 -16.19523 3.805396 18.25354 9.373262
0.5843919 103.9193 2.810475 1.208435 -0.9758356 0.1162973 2.856573 -15.96391 8.751799 1.351676e-09 38.84772 -2.580569e-10 -5.568572 -16.48165 -3.56522 -7.227617 11.59398 -23.43045 -4.172636e-09 5.250712 2.487432e-09 7.523593 -17.5989 25.85656 -4.072376 -4.18039 4.585745 2.425137 9.20223 -7.909811 1.168033 22.3784 6.943269 3.23653 -23.9421 9.052482 6.453623 -19.90683 11.54371 86.41003 35.48156 -20.01059 3.822399e-10 -3.759285e-10 16.29192 -7.064979 8.34593 4.249849 5.203975 -19.56525 -2.001413 -94.58646 29.92969 22.95549 7.802808e-11 -3.015903e-10 -16.60993 3.813922 17.77522 9.595373
0.8635651 104.0676 4.434651 0.6204667 -0.5272071 0.2778978 3.785473 -19.33273 8.525402 1.012654e-09 37.97032 -3.876142e-10 -5.782389 -14.82431 -3.43268 -6.715255 12.2095 -22.7546 -2.32062e-09 5.312515 1.49681e-09 6.767132 -18.38214 24.77003 -3.533062 -3.4391 4.186646 2.544864 9.160168 -8.007743 1.136933 22.07668 7.20757 3.403251 -24.4376 9.203511 6.425766 -19.71458 11.59153 86.64108 35.41048 -20.18919 3.697594e-11 -2.048916e-10 16.00365 -7.423365 8.538132 4.570818 5.266466 -19.63003 -2.24488 -94.45756 29.73554 22.59394 9.986417e-11 -3.400161e-10 -17.25397 3.919737 17.25223 9.69789
1.126518 104.0541 6.240764 0.2207627 0.0845649 0.5013512 4.479219 -22.62009 8.151149 6.7827e-10 35.14683 -4.25139e-10 -5.952557 -12.9554 -3.1329 -6.405807 12.71111 -22.12762 -4.795609e-10 5.519001 8.821086e-10 6.026027 -19.34199 23.67583 -3.137783 -2.758347 3.906945 2.657665 9.056211 -8.05679 1.139957 21.74944 7.481612 3.648435 -24.95918 9.345421 6.309944 -19.43079 11.57274 86.79963 35.35948 -20.47977 -3.490818e-10 -2.279188e-10 15.60653 -7.854299 8.659865 4.933857 5.516777 -19.7619 -2.419429 -94.198 29.4807 22.03141 8.367799e-11 -4.052927e-10 -18.14025 4.086353 16.74272 9.677793
1.373783 103.8342 8.280879 -0.03396694 0.8601235 0.7763865 4.932422 -25.52913 7.63991 3.473463e-10 30.96653 -4.03418e-10 -6.103056 -10.92867 -2.686742 -6.257606 13.08411 -21.54343 1.153207e-09 5.90989 6.446622e-10 5.246775 -20.29068 22.51512 -2.859709 -2.202453 3.740239 2.759222 8.883648 -8.059474 1.173771 21.39145 7.738092 3.94167 -25.501 9.466479 6.124963 -19.08097 11.48178 86.87248 35.33311 -20.81366 -6.987443e-10 -3.994181e-10 15.13957 -8.324425 8.728039 5.33108 5.880317 -19.90151 -2.501809 -93.86798 29.16882 21.41298 3.131803e-11 -4.644948e-10 -19.08943 4.280449 16.24779 9.588193
1.607524 103.4126 10.65516 -0.2414426 1.739571 1.092075 5.247661 -27.93131 7.05338 -6.669166e-12 26.20957 -3.396326e-10 -6.249481 -8.975564 -2.200214 -6.148313 13.44375 -20.94524 2.415297e-09 6.585825 5.950556e-10 4.334252 -21.01067 21.19526 -2.617738 -1.8061 3.634049 2.861632 8.644578 -8.051739 1.225515 21.02195 7.938876 4.216829 -26.01944 9.551216 5.898854 -18.6829 11.3302 86.94614 35.31004 -21.18239 -9.278891e-10 -6.319441e-10 14.60672 -8.776602 8.803329 5.724302 6.258839 -20.01655 -2.492111 -93.49663 28.81367 20.79096 -3.095748e-11 -4.880507e-10 -20.01437 4.477764 15.75826 9.476181
1.828321 102.8404 13.44658 -0.478813 2.536039 1.440237 5.531242 -29.69723 6.518154 -3.48931e-10 22.01497 -2.684231e-10 -6.412629 -7.447666 -1.843338 -5.969583 13.80955 -20.31133 3.258056e-09 7.703017 5.089482e-10 3.272453 -21.31016 19.75129 -2.354256 -1.534974 3.524379 2.962968 8.367695 -8.054936 1.287859 20.72246 8.040493 4.39561 -26.42349 9.593108 5.670176 -18.26196 11.1521 87.1446 35.27766 -21.53909 -9.758164e-10 -8.173241e-10 14.04091 -9.132455 8.935319 6.054655 6.530592 -20.07334 -2.424121 -93.15863 28.49385 20.2006 -6.775628e-11 -4.868046e-10 -20.75908 4.638055 15.29603 9.404122
2.045029 102.2668 16.77002 -0.8484713 3.205721 1.815289 5.927187 -30.58436 6.139086 -7.187432e-10 19.39994 -1.719758e-10 -6.704272 -6.347436 -1.631243 -5.630684 14.15604 -19.60699 3.581922e-09 9.651338 1.890991e-10 2.047318 -20.85726 18.1171 -1.977767 -1.425485 3.372018 3.071392 8.103905 -8.091866 1.330254 20.47303 8.025239 4.450437 -26.73714 9.55689 5.507873 -17.86357 10.98505 87.42486 35.27156 -21.82175 -8.189259e-10 -8.804401e-10 13.43763 -9.318987 9.151421 6.292601 6.555284 -20.03108 -2.316593 -92.88403 28.20495 19.84664 -6.238913e-11 -4.415711e-10 -21.09751 4.761621 14.86215 9.410202
2.266078 101.8748 20.63895 -1.320236 3.621689 2.210661 6.401074 -30.53853 5.964057 -1.050071e-09 18.94424 1.529069e-11 -7.211608 -5.657489 -1.593776 -5.16195 14.3565 -18.85931 3.58677e-09 12.60791 -5.363371e-10 0.8407876 -19.55245 16.39778 -1.520476 -1.428108 3.168544 3.17701 7.933923 -8.166927 1.326728 20.27586 7.895096 4.377989 -26.91291 9.411269 5.471174 -17.503 10.87242 87.65427 35.36867 -21.98317 -5.740779e-10 -8.216086e-10 12.76845 -9.285473 9.451374 6.409426 6.263569 -19.90877 -2.228336 -92.51756 27.97638 19.72209 6.074217e-12 -4.29971e-10 -20.93279 4.853864 14.46134 9.488091
2.503913 101.7961 25.0881 -1.833261 3.742911 2.598075 6.936352 -29.45087 5.939012 -1.357982e-09 19.85671 2.525971e-10 -7.80781 -5.404383 -1.724332 -4.590875 14.10602 -17.97704 3.395827e-09 16.78172 -1.51375e-09 -0.3540925 -17.5034 14.71159 -0.9984136 -1.486929 2.997888 3.257451 7.865831 -8.231957 1.312935 20.16978 7.64666 4.193304 -26.92866 9.175681 5.480388 -17.21385 10.81806 87.93277 35.44763 -21.99674 -2.216884e-10 -6.568031e-10 12.15494 -9.192919 9.86177 6.467775 5.733942 -19.72622 -2.164075 -92.24492 27.73864 19.84985 1.157553e-10 -4.253894e-10 -20.34493 4.892692 14.05771 9.646044
2.744574 102.1255 29.95712 -2.290372 3.54123 2.915477 7.544221 -27.61517 6.07138 -1.577693e-09 21.0696 5.39149e-10 -8.527565 -5.699502 -1.928666 -4.005975 13.106 -17.00159 3.545619e-09 22.71413 -2.984804e-09 -1.397421 -14.90787 13.22276 -0.4453607 -1.48044 2.948159 3.320584 7.959441 -8.259243 1.2691 20.13945 7.331019 3.968325 -26.804 8.837658 5.564731 -16.98664 10.87969 87.99223 35.56141 -21.90716 1.729383e-12 -4.644953e-10 11.56298 -8.96321 10.28404 6.381657 5.056328 -19.58325 -2.166261 -91.8875 27.52392 20.10405 2.657975e-10 -5.060307e-10 -19.63231 4.91675 13.69244 9.801344
2.973883 102.8702 35.09918 -2.479193 2.988465 3.096566 7.939849 -24.71532 6.142223 -1.655394e-09 21.77309 6.96682e-10 -9.118634 -6.538634 -2.164748 -3.582515 10.90617 -15.85933 3.937694e-09 30.27483 -4.533323e-09 -2.233282 -12.12371 12.15898 -0.03545339 -1.371574 3.165475 3.296509 8.177449 -8.167352 1.239233 20.31863 6.976082 3.745548 -26.46841 8.443289 5.619548 -16.8112 11.03046 88.02417 35.66284 -21.68924 2.512083e-10 -2.465481e-10 11.08509 -8.913402 10.70372 6.276566 4.388623 -19.51102 -2.203389 -91.62906 27.30877 20.31196 3.806978e-10 -5.67456e-10 -19.05654 4.917816 13.34161 9.946308
3.177219 103.9323 40.20082 -2.240682 2.123135 3.121814 7.843568 -20.85144 6.006083 -1.401611e-09 21.64723 6.007924e-10 -9.485439 -7.814125 -2.251895 -3.457612 7.09711 -14.67832 4.746135e-09 37.98792 -5.939374e-09 -2.621479 -9.700527 11.75737 0.05232947 -1.071788 3.7117 3.122278 8.507347 -7.877939 1.214307 20.69793 6.666126 3.597766 -25.9135 8.033817 5.60993 -16.7723 11.26447 87.66977 35.80591 -21.0659 3.844174e-10 -6.254386e-11 10.92057 -9.21656 10.99532 6.2789 3.858123 -19.5035 -2.299805 -91.33939 27.12286 20.4114 4.167192e-10 -6.635523e-10 -18.72257 4.909547 13.02989 10.02803
3.358364 105.17 45.14568 -1.622115 1.17486 3.026878 7.251085 -16.22598 5.586952 -9.772923e-10 20.62115 2.579947e-10 -9.450836 -9.114471 -2.095931 -3.600525 2.174177 -13.49298 5.370667e-09 44.73431 -6.755026e-09 -2.704944 -7.872497 11.88787 -0.186172 -0.7084163 4.533718 2.796975 8.835434 -7.410029 1.206318 21.22782 6.449029 3.547422 -25.2184 7.665063 5.49208 -16.83833 11.49864 87.09931 35.93029 -20.0901 5.432441e-10 7.448824e-11 11.04668 -10.07405 11.18089 6.542173 3.560412 -19.51628 -2.377033 -91.10865 26.87239 20.34887 3.360676e-10 -6.61701e-10 -18.74038 4.906585 12.68968 10.05469
3.542935 106.3951 49.86056 -0.7505083 0.291397 2.865984 6.254892 -11.1772 4.972966 -4.359292e-10 19.10026 -2.212212e-10 -9.064374 -10.31911 -1.664805 -3.896037 -3.452871 -12.41987 5.381359e-09 48.94986 -6.62722e-09 -2.443185 -6.771752 12.49553 -0.7123077 -0.3433756 5.504961 2.35462 9.112322 -6.817547 1.191401 21.80056 6.347152 3.5815 -24.45855 7.355229 5.289391 -17.08314 11.70153 86.21038 36.0693 -18.6628 6.890577e-10 1.457553e-10 11.55221 -11.45079 11.2613 7.144496 3.490041 -19.50281 -2.413835 -90.91832 26.54593 20.24153 1.63247e-10 -5.907395e-10 -18.95245 4.901054 12.31802 10.04384
3.756436 107.4065 54.31878 0.1041792 -0.450752 2.656532 5.210257 -6.437016 4.368901 1.006561e-10 17.16459 -6.097433e-10 -8.464924 -11.52863 -1.099899 -4.079347 -8.947215 -11.46072 4.801881e-09 49.7593 -5.764721e-09 -1.898085 -6.343728 13.49416 -1.319761 -0.008924518 6.406356 1.904196 9.330961 -6.225989 1.145394 22.26897 6.338674 3.645815 -23.68971 7.09502 5.053596 -17.53213 11.87109 84.96579 36.16242 -16.86831 7.043357e-10 1.282686e-10 12.39337 -13.10662 11.2858 8.017146 3.606869 -19.47107 -2.419612 -90.68234 26.10517 20.1207 -2.564715e-11 -5.162306e-10 -19.24233 4.896088 11.91659 9.973134
4.06004 108.0031 58.72147 0.6854787 -0.950007 2.396434 4.363397 -2.144819 3.796416 5.190713e-10 15.09168 -8.794339e-10 -7.641876 -12.8817 -0.5381899 -3.823851 -13.85724 -10.37981 3.391033e-09 46.23128 -4.066659e-09 -1.277746 -6.414771 14.71005 -1.804913 0.2280129 7.086676 1.501642 9.421155 -5.707353 1.093791 22.56323 6.352034 3.640827 -22.94802 6.904977 4.714176 -18.28064 11.96059 83.65163 36.02419 -14.67041 7.694825e-10 9.982285e-11 13.74563 -15.06403 11.38656 9.245576 3.848067 -19.34319 -2.360473 -90.6872 25.4557 20.22048 -1.984219e-10 -3.887257e-10 -19.34848 4.839759 11.42407 9.924893
4.473609 108.1006 63.05029 0.8786122 -1.262588 2.055023 3.882515 1.258306 3.435204 8.905569e-10 13.51871 -8.626403e-10 -7.026256 -14.51252 -0.05386573 -3.099676 -17.83512 -9.288328 2.289266e-09 39.43803 -2.824615e-09 -0.4297611 -6.659898 16.10362 -2.068568 0.4075109 7.435262 1.236288 9.499871 -5.356382 0.9656724 22.59123 6.381045 3.577341 -22.30422 6.707566 4.474964 -19.26157 12.05341 81.92477 35.87543 -12.22188 6.248734e-10 2.910892e-11 15.32319 -16.77441 11.4851 10.52278 4.054117 -19.18206 -2.298399 -90.5589 24.76131 20.55565 -2.849898e-10 -3.689368e-10 -19.12784 4.778484 10.96966 9.842385
5.010337 107.7142 67.47495 0.7360641 -1.347505 1.630625 3.71997 3.967202 3.188769 1.089379e-09 12.61084 -6.886536e-10 -6.487301 -16.17994 0.2994793 -2.019234 -20.65749 -8.126385 1.230008e-09 30.9372 -1.946937e-09 0.3359635 -6.85141 17.34194 -2.100222 0.4329032 7.518484 1.088733 9.508514 -5.16986 0.8170854 22.43504 6.379234 3.43022 -21.77951 6.534216 4.27268 -20.32393 12.09515 80.32849 35.62033 -9.871058 5.500585e-10 -4.793569e-12 16.96439 -18.27184 11.65765 11.7887 4.194495 -18.9636 -2.190616 -90.5103 24.02845 21.10609 -3.095024e-10 -3.238342e-10 -18.66461 4.684616 10.52042 9.809249
